<svg xmlns="http://www.w3.org/2000/svg" viewBox="0 0 621 683"><g id="Layer_2" data-name="Layer 2"><g id="Layer_1-2" data-name="Layer 1"><path d="M621,683H0V0H621ZM351.22,454.23V656H590.74c0-11.64-6.76-22.25-17.38-25.88-5.19-1.78-11-2.16-16.57-2.34-10.78-.34-21.57-.1-33-.1V453.92h-11.5c-.1-1.77-.25-3.08-.25-4.38,0-60.33-.38-120.67.33-181,.14-12.12-1.84-20.82-13.84-25.31-4.9-1.83-5.94-5.54-5.61-10.63,1.89-29.9-3-58.76-15.78-85.87C445.2,78.92,391.43,41.37,316.9,35.34,272.09,31.71,231,44.39,194.54,71a186.64,186.64,0,0,0-62.92,79.66c-12,28.54-16.14,58.45-13.48,89.28.34,3.94,1,7.85,1.64,12.47,8.17,0,16.12-.94,23.77.19,19.48,2.88,32.28,19,32.42,40q.21,31-.06,62c0,3.74,1,6.37,4,8.45,12.24,8.57,24.3,17.42,36.76,25.66,4.83,3.19,10.54,5.05,16.53,7.82V390c0-44.34.05-88.67-.1-133,0-3.82,1.16-6,4.34-8.06,7.84-5,15.42-10.45,23.09-15.73,14.93-10.27,29.85-20.54,44.62-30.72a13.14,13.14,0,0,1,1.7.79c22.91,15.69,45.85,31.34,68.61,47.23,1.47,1,2.26,3.95,2.27,6Q378,352.73,378,449c0,1.61-.14,3.22-.24,5.26Zm-.69,59c-1.59-.25-2.07-.4-2.56-.4q-69.18,0-138.36.11a6.94,6.94,0,0,0-4.88,3c-7.7,12.6-15.15,25.35-22.68,38.06l-9.17,15.5a18,18,0,0,0,2.15.36q69.43,0,138.86-.13a7,7,0,0,0,4.86-3C325,556.52,331,546.17,337.1,535.89,341.46,528.51,345.84,521.14,350.53,513.23ZM205.9,628a18.31,18.31,0,0,0-2.32-.35c-18.64,0-37.28,0-55.92-.05a26.27,26.27,0,0,0-17.34,6.53c-2.17,1.82-4.65,4.38-5.08,6.93-.81,4.79-.24,9.82-.24,14.94h80.9Zm56.28,28.4h28.53V599.27H262.18Zm28.57-231.22V367.89H262.23v57.33Zm29.34-.11h28.37V367.85H320.09Zm-29.36-86.53c.11-1.36.26-2.48.26-3.6,0-12.82.07-25.64,0-38.46-.05-9.23-6.11-15.58-14.58-15.52-8,.05-14.26,6.5-14.36,15.31-.13,10.8,0,21.61,0,32.41,0,3.26,0,6.51,0,9.86Zm29.3,0h28.76c0-15,.41-29.79-.17-44.52-.3-7.84-7-13.12-14.4-13.07s-13.86,5.41-14.06,12.79C319.74,308.55,320,323.32,320,338.59Z" fill="#fefefe"/><path d="M351.22,454.23h26.53c.1-2,.24-3.65.24-5.26q-.08-96.24-.27-192.48c0-2-.8-5-2.27-6-22.76-15.89-45.7-31.54-68.61-47.23a13.14,13.14,0,0,0-1.7-.79c-14.77,10.18-29.69,20.45-44.62,30.72-7.67,5.28-15.25,10.71-23.09,15.73-3.18,2-4.35,4.24-4.34,8.06.15,44.33.1,88.66.1,133v6.54c-6-2.77-11.7-4.63-16.53-7.82-12.46-8.24-24.52-17.09-36.76-25.66-3-2.08-4-4.71-4-8.45q.28-31,.06-62c-.14-21-12.94-37.15-32.42-40-7.65-1.13-15.6-.19-23.77-.19-.61-4.62-1.3-8.53-1.64-12.47-2.66-30.83,1.45-60.74,13.48-89.28A186.64,186.64,0,0,1,194.54,71C231,44.39,272.09,31.71,316.9,35.34c74.53,6,128.3,43.58,160.28,111.39,12.78,27.11,17.67,56,15.78,85.87-.33,5.09.71,8.8,5.61,10.63,12,4.49,14,13.19,13.84,25.31-.71,60.33-.34,120.67-.33,181,0,1.3.15,2.61.25,4.38h11.5V627.65c11.39,0,22.18-.24,33,.1,5.56.18,11.38.56,16.57,2.34,10.62,3.63,17.35,14.24,17.38,25.88H351.22Z" fill="#7a57d0"/><path d="M350.53,513.23c-4.69,7.91-9.07,15.28-13.43,22.66C331,546.17,325,556.52,318.75,566.68a7,7,0,0,1-4.86,3q-69.43.24-138.86.13a18,18,0,0,1-2.15-.36l9.17-15.5c7.53-12.71,15-25.46,22.68-38.06a6.94,6.94,0,0,1,4.88-3q69.18-.24,138.36-.11C348.46,512.83,348.94,513,350.53,513.23Z" fill="#7a58d0"/><path d="M205.9,628v28H125c0-5.12-.57-10.15.24-14.94.43-2.55,2.91-5.11,5.08-6.93a26.27,26.27,0,0,1,17.34-6.53c18.64.06,37.28,0,55.92.05A18.31,18.31,0,0,1,205.9,628Z" fill="#7a57d0"/><path d="M262.18,656.44V599.27h28.53v57.17Z" fill="#7b58d1"/><path d="M290.75,425.22H262.23V367.89h28.52Z" fill="#7a58d1"/><path d="M320.09,425.11V367.85h28.37v57.26Z" fill="#7b59d1"/><path d="M290.73,338.58H262.08c0-3.35,0-6.6,0-9.86,0-10.8-.16-21.61,0-32.41.1-8.81,6.31-15.26,14.36-15.31,8.47-.06,14.53,6.29,14.58,15.52.08,12.82,0,25.64,0,38.46C291,336.1,290.84,337.22,290.73,338.58Z" fill="#7b58d1"/><path d="M320,338.59c0-15.27-.29-30,.13-44.8.2-7.38,6.75-12.75,14.06-12.79s14.1,5.23,14.4,13.07c.58,14.73.17,29.51.17,44.52Z" fill="#7b59d1"/></g></g></svg>